<svg width="12" height="12" viewBox="0 0 12 12" fill="none" xmlns="http://www.w3.org/2000/svg">
<path fill-rule="evenodd" clip-rule="evenodd" d="M6.00004 0.458344C6.2992 0.458344 6.54171 0.700856 6.54171 1.00001V5.45834L11 5.45834C11.2992 5.45834 11.5417 5.70086 11.5417 6.00001C11.5417 6.29916 11.2992 6.54168 11 6.54168H6.54171V11C6.54171 11.2992 6.29919 11.5417 6.00004 11.5417C5.70089 11.5417 5.45837 11.2992 5.45837 11V6.54168L1.00004 6.54168C0.700886 6.54168 0.458374 6.29917 0.458374 6.00001C0.458374 5.70086 0.700886 5.45834 1.00004 5.45834L5.45837 5.45834V1.00001C5.45837 0.700856 5.70089 0.458344 6.00004 0.458344Z" fill="#2A0062"/>
</svg>
